# xmcd CD database file
#
# Track frame offsets:
#	150
#	19635
#	36223
#
# Disc length: 703 seconds
#
# Revision: 0
# Processed by: cddbd v1.5.1PL2 Copyright (c) Steve Scherf et al.
# Submitted via: CDex 1.51
#
DISCID=1902bd03
DTITLE=小川まき - ユメアカネ
DYEAR=2006
DGENRE=J ポップ
TTITLE0=ユメアカネ-夢茜-
TTITLE1=ぽっかぽか
TTITLE2=Ｒｕｎ La Run
EXTD=YEAR: 2006
EXTT0=
EXTT1=
EXTT2=
PLAYORDER=
